<svg xmlns="http://www.w3.org/2000/svg" viewBox="0 0 59.75 9.12"><path d="M0 5.62c0-.96.23-1.71.68-2.26s1.08-.82 1.88-.82 1.44.27 1.89.82.68 1.3.68 2.27v.4c0 .96-.22 1.72-.67 2.26s-1.08.81-1.89.81-1.44-.27-1.9-.82-.68-1.3-.68-2.27v-.4Zm1.66.42c0 1.13.3 1.7.91 1.7.56 0 .86-.47.9-1.42v-.7c0-.58-.07-1.01-.23-1.29s-.39-.42-.68-.42-.5.14-.66.42-.24.71-.24 1.29v.42ZM7.68 2.66l.05.63c.38-.5.87-.74 1.47-.74 1.09 0 1.65.76 1.68 2.29v4.17H9.22V4.96c0-.36-.05-.62-.16-.78s-.3-.24-.57-.24c-.3 0-.54.15-.7.46v4.61H6.13V2.66h1.56ZM15.08 9c-.05-.1-.09-.26-.14-.49-.3.41-.7.61-1.21.61s-.97-.18-1.32-.53-.52-.81-.52-1.37c0-.66.21-1.18.64-1.54s1.03-.55 1.83-.56h.5v-.51c0-.29-.05-.49-.15-.6s-.24-.18-.43-.18c-.41 0-.62.24-.62.73H12c0-.59.22-1.07.66-1.45s1-.57 1.67-.57 1.23.18 1.61.54.57.88.57 1.55v2.98c0 .55.09.97.23 1.28v.1h-1.67Zm-.98-1.18c.18 0 .34-.04.47-.11s.22-.16.29-.26V6.13h-.4c-.28 0-.5.09-.67.27s-.24.42-.24.72c0 .47.18.7.55.7ZM19.82 6.56l-.45.5v1.95h-1.66V0h1.66v4.86l.21-.3 1.15-1.9h1.97l-1.84 2.61L22.88 9h-1.9l-1.16-2.44ZM26.47 9c-.05-.1-.09-.26-.14-.49-.3.41-.7.61-1.21.61s-.97-.18-1.32-.53-.52-.81-.52-1.37c0-.66.21-1.18.64-1.54s1.03-.55 1.83-.56h.5v-.51c0-.29-.05-.49-.15-.6s-.24-.18-.43-.18c-.41 0-.62.24-.62.73h-1.66c0-.59.22-1.07.66-1.45s1-.57 1.67-.57 1.23.18 1.61.54.57.88.57 1.55v2.98c0 .55.09.97.23 1.28v.1h-1.67Zm-.98-1.18c.18 0 .34-.04.47-.11s.22-.16.29-.26V6.13h-.4c-.28 0-.5.09-.67.27s-.24.42-.24.72c0 .47.18.7.55.7ZM31.92 7.3c0-.14-.07-.27-.2-.39s-.43-.28-.9-.48c-.68-.28-1.15-.56-1.41-.86s-.38-.67-.38-1.11c0-.55.2-1.01.6-1.37s.93-.54 1.59-.54c.7 0 1.25.18 1.67.54s.63.84.63 1.45h-1.66c0-.52-.21-.77-.64-.77-.18 0-.32.05-.43.16s-.17.26-.17.46c0 .14.06.26.19.37s.42.26.88.46c.68.25 1.15.53 1.43.83s.42.7.42 1.19c0 .57-.21 1.02-.64 1.37s-.98.52-1.68.52c-.46 0-.88-.09-1.23-.27s-.63-.43-.83-.76-.3-.67-.3-1.05h1.58c0 .29.08.51.2.65s.33.22.62.22c.45 0 .67-.2.67-.6ZM37.68 8.42c-.34.46-.8.7-1.38.7s-1.02-.2-1.32-.6-.45-.98-.45-1.75V2.66h1.66v4.15c0 .62.21.93.62.93.38 0 .65-.16.82-.49V2.66h1.67V9h-1.56l-.05-.58ZM40.46 1.02c0-.26.08-.47.25-.63s.38-.25.66-.25.49.08.66.25.25.38.25.63-.08.46-.24.63-.38.25-.66.25-.5-.08-.66-.25-.24-.38-.24-.63ZM42.2 9h-1.66V2.66h1.66V9ZM45.42 1.1v1.56h.85V3.9h-.85v3.15c0 .25.03.42.1.52.07.09.2.14.4.14.16 0 .29-.01.39-.04v1.29c-.29.11-.6.16-.93.16-1.07 0-1.61-.61-1.62-1.84V3.9h-.73V2.66h.73V1.1h1.66ZM49.1 1.1v1.56h.85V3.9h-.85v3.15c0 .25.03.42.1.52.07.09.2.14.4.14.16 0 .29-.01.39-.04v1.29c-.29.11-.6.16-.93.16-1.07 0-1.61-.61-1.62-1.84V3.9h-.73V2.66h.73V1.1h1.66ZM53.42 9.12c-.85 0-1.52-.25-1.99-.76s-.71-1.23-.71-2.18v-.5c0-1 .22-1.77.66-2.31s1.06-.81 1.88-.81 1.4.25 1.8.76c.4.51.61 1.26.62 2.26v.81h-3.3c.02.47.13.81.31 1.03s.47.33.85.33c.55 0 1.02-.19 1.39-.57l.65 1c-.2.28-.5.51-.88.68s-.81.26-1.26.26Zm-1.04-3.89h1.66v-.15c0-.38-.07-.67-.19-.86s-.32-.29-.61-.29-.5.1-.63.31-.21.54-.23 1ZM59.73 4.26l-.55-.05c-.45 0-.76.2-.92.6V9H56.6V2.66h1.56l.05.69c.26-.54.62-.8 1.08-.8.19 0 .34.03.46.08l-.02 1.64Z"/></svg>