<svg xmlns="http://www.w3.org/2000/svg" viewBox="0 0 164.49 24"><path fill="#fff" d="M29.47 2.87c-1.08.49-2.25.82-3.46.97A6.08 6.08 0 0 0 28.66.49a12.2 12.2 0 0 1-3.83 1.48 6.04 6.04 0 0 0-10.31 5.51A17.19 17.19 0 0 1 2.07 1.17a5.95 5.95 0 0 0 1.86 8.04c-1 0-1.93-.28-2.75-.7v.04a6.06 6.06 0 0 0 4.85 5.93c-.89.24-1.82.28-2.72.1a6.03 6.03 0 0 0 5.63 4.2 12.03 12.03 0 0 1-8.95 2.51 17.1 17.1 0 0 0 9.27 2.72c11.1 0 17.2-9.21 17.2-17.2v-.79a12.45 12.45 0 0 0 3-3.14ZM43.75 10.37l-3.74 1.37a69.92 69.92 0 0 0-2.81-6.89l3.72-1.3a77.98 77.98 0 0 1 2.83 6.82Zm14.23-4.03c-.65 2.4-2.06 6.43-4.03 9.05a22.02 22.02 0 0 1-9.46 7.1l-3.26-3.29c3.19-.89 7.03-2.98 9.5-6.07 1.75-2.21 3.24-6.48 3.62-10.18l4.34 1.22c-.31.72-.55 1.54-.72 2.16Zm-7.8 2.21-3.67 1.3a61.92 61.92 0 0 0-2.57-6.6l3.65-1.2a60.26 60.26 0 0 1 2.59 6.5ZM70.36 7.2a32.46 32.46 0 0 0 6.86-5.9l3.14 3a46.98 46.98 0 0 1-6.41 5.14v9.46c0 1.15.05 2.81.24 3.48h-4.61c.1-.65.19-2.33.19-3.48v-7.03a47.8 47.8 0 0 1-8.11 3.24l-1.8-3.67a38 38 0 0 0 10.49-4.22ZM85.43 9.77h12.75c1.08 0 2.26-.12 2.95-.17v4.58c-.62-.02-1.97-.14-2.95-.14H85.43c-1.37 0-3.17.07-4.15.14V9.6c.96.07 2.98.17 4.15.17ZM107.62 5.01c0-.96-.1-2.21-.29-3.12h4.54c-.1.91-.24 1.97-.24 3.12V8.3c3.24.94 7.9 2.64 9.91 3.62l-1.66 4.06a73.35 73.35 0 0 0-8.26-3.43v6.17a49 49 0 0 0 .26 3.62h-4.56c.17-1.03.29-2.64.29-3.62V5.01ZM133.42 4.25l-.02-.26c-.1-1.15-.19-2.04-.26-2.4h4.2c-.07.46-.17 1.94-.19 2.38v.26c2.23 0 5.45-.05 6.7-.02l-.05 3.43c-1.42-.07-3.67-.12-6.7-.14l.02 3.38c.62.94.94 2.14.94 3.43 0 3.07-1.99 7.25-7.99 8.88l-3.1-3.1c2.09-.43 4.08-1.01 5.5-2.11l-.43.02a4.46 4.46 0 0 1-4.25-4.61c0-2.9 2.33-4.68 5.11-4.68l.6.02-.02-1.22c-3.6.05-7.15.19-10.08.34l-.1-3.48c2.76.02 7.03-.07 10.13-.12Zm-.62 7.51c-.74 0-1.54.46-1.54 1.56 0 .86.77 1.46 1.54 1.46s1.58-.55 1.32-2.38a1.53 1.53 0 0 0-1.32-.65ZM150.61 2.64c1.3 0 6.1-.07 7.51-.19 1.15-.1 1.82-.19 2.14-.29l1.8 2.57c-.62.38-1.25.74-1.85 1.18-1.34.91-3.46 2.64-4.78 3.65.62-.12 1.1-.14 1.68-.14 4.13 0 7.37 2.64 7.37 6.26s-2.71 7.03-8.93 7.03c-3.38 0-6.19-1.58-6.19-4.22 0-2.11 1.92-4.08 4.66-4.08 2.93 0 4.8 1.7 5.21 3.98a3.14 3.14 0 0 0 1.42-2.76c0-2.06-2.11-3.36-4.75-3.36-3.5 0-6.02 2.11-8.33 4.92l-2.64-2.74c1.54-1.2 4.34-3.58 5.76-4.75 1.34-1.1 3.58-2.83 4.73-3.86-1.2.02-3.67.12-4.97.22-.72.05-1.58.12-2.16.22l-.12-3.77c.74.1 1.66.14 2.45.14Zm3.43 14.52c-.79 0-1.25.48-1.25.96 0 .74.79 1.27 2.02 1.27l1.08-.05c-.12-1.32-.84-2.18-1.85-2.18Z"/></svg>
